<svg xmlns="http://www.w3.org/2000/svg" viewBox="0 0 40.24 89.92"><defs><style>.cls-1{fill:#fff;}.cls-2{fill:#bbb;}</style></defs><title>Asset 3</title><g id="Layer_2" data-name="Layer 2"><g id="Layer_1-2" data-name="Layer 1"><g id="Layer_3" data-name="Layer 3"><path class="cls-1" d="M20.12,0A20.12,20.12,0,1,0,40.24,20.12,20.12,20.12,0,0,0,20.12,0ZM12.88,31.32V8.92l19.4,11.2Z"/></g><g id="Layer_3_copy" data-name="Layer 3 copy"><path class="cls-2" d="M20.12,49.68A20.12,20.12,0,1,0,40.24,69.8,20.12,20.12,0,0,0,20.12,49.68ZM31.84,80.05l-1.51,1.51L20.08,71.32,9.83,81.57,8.32,80.05,18.57,69.8,8.32,59.55,9.83,58,20.08,68.29,30.33,58l1.51,1.51L21.59,69.8Z"/></g></g></g></svg>