<svg id="Layer_1" data-name="Layer 1" xmlns="http://www.w3.org/2000/svg" viewBox="0 0 34.11 34.11"><defs><style>.cls-1{fill:#fff;}</style></defs><title>icon_reset</title><path class="cls-1" d="M12.39,27.13H7.94V37.79l3.16-2.9a17.05,17.05,0,0,0,30.82-7.75H37.61A12.79,12.79,0,0,1,14.27,32l5.27-4.84Zm0,0" transform="translate(-7.94 -7.94)"/><path class="cls-1" d="M25,7.94A17,17,0,0,0,8.08,22.87h4.31a12.79,12.79,0,0,1,23.53-4.53L31.4,22.87H42.06V12.21l-3.05,3A17,17,0,0,0,25,7.94Zm0,0" transform="translate(-7.94 -7.94)"/></svg>