<svg xmlns="http://www.w3.org/2000/svg" viewBox="0 0 49.24 49.24"><defs><style>.cls-1{fill:#444;}.cls-2{fill:#fff;}</style></defs><title>Asset 2</title><g id="Layer_2" data-name="Layer 2"><g id="Layer_1-2" data-name="Layer 1"><circle class="cls-1" cx="24.62" cy="24.62" r="24.62"/><path class="cls-2" d="M12,26.8H7.51V37.46l3.16-2.9A17.05,17.05,0,0,0,41.49,26.8H37.18a12.79,12.79,0,0,1-23.34,4.84l5.27-4.84Zm0,0"/><path class="cls-2" d="M24.56,7.62A17,17,0,0,0,7.65,22.55H12A12.79,12.79,0,0,1,35.49,18L31,22.55H41.63V11.89l-3.05,3a17,17,0,0,0-14-7.32Zm0,0"/></g></g></svg>