<svg xmlns="http://www.w3.org/2000/svg" viewBox="0 0 49.24 49.24"><defs><style>.cls-1{fill:#444;}.cls-2{fill:#fff;}</style></defs><title>Asset 1</title><g id="Layer_2" data-name="Layer 2"><g id="Layer_1-2" data-name="Layer 1"><circle class="cls-1" cx="24.62" cy="24.62" r="24.62"/><g id="Layer_2-2" data-name="Layer 2"><path class="cls-2" d="M17.12,10.51a10.38,10.38,0,0,1,7.95-3.08,10.5,10.5,0,0,1,7.49,2.64,8.83,8.83,0,0,1,2.81,6.74,7.21,7.21,0,0,1-1,4,30.93,30.93,0,0,1-4.18,4.55,13.44,13.44,0,0,0-3,3.69,11.15,11.15,0,0,0-.69,4.46H22.31a15.19,15.19,0,0,1,.8-5.4,14.33,14.33,0,0,1,3.55-4.7l1.91-1.85A8,8,0,0,0,30,19.92a5.79,5.79,0,0,0,1-3.16,6,6,0,0,0-1.4-4q-1.4-1.69-4.63-1.69-4,0-5.53,2.91a11.08,11.08,0,0,0-1,4.66H14.23A11.41,11.41,0,0,1,17.12,10.51Zm5.1,26.92h4.66V42.3H22.22Z"/></g></g></g></svg>