<svg id="Layer_1" data-name="Layer 1" xmlns="http://www.w3.org/2000/svg" viewBox="0 0 40.24 89.92"><defs><style>.cls-1{fill:#666;}.cls-2{fill:#fff;}</style></defs><title>icons_tour</title><g id="Layer_3" data-name="Layer 3"><path class="cls-1" d="M25.05,54.94A20.12,20.12,0,1,0,45.17,75.06,20.12,20.12,0,0,0,25.05,54.94Zm8.59,31.59L25,77.89l-8.59,8.59L13.53,83.6,22.12,75l-8.54-8.54,2.88-2.88L25,72.13l8.59-8.59,2.88,2.88L27.88,75l8.64,8.64Z" transform="translate(-4.93 -5.26)"/></g><path class="cls-2" d="M25.05,5.26A20.12,20.12,0,1,0,45.17,25.38,20.12,20.12,0,0,0,25.05,5.26ZM17.81,36.58V14.18l19.4,11.2Z" transform="translate(-4.93 -5.26)"/></svg>